<?xml version="1.0" standalone="no"?>
<!DOCTYPE svg PUBLIC "-//W3C//DTD SVG 20010904//EN"
 "http://www.w3.org/TR/2001/REC-SVG-20010904/DTD/svg10.dtd">
<svg version="1.0" xmlns="http://www.w3.org/2000/svg"
 width="48.000000pt" height="48.000000pt" viewBox="0 0 48.000000 48.000000"
 preserveAspectRatio="xMidYMid meet">

<g transform="translate(0.000000,48.000000) scale(0.100000,-0.100000)"
fill="#000000" stroke="none">
<path d="M235 437 c-23 -14 -35 -28 -35 -41 0 -5 8 -2 18 7 28 26 68 31 103
13 39 -19 39 -19 39 -3 0 31 -86 47 -125 24z"/>
<path d="M370 333 c0 -7 -12 -13 -27 -14 -16 0 -35 -3 -44 -7 -14 -6 -15 -9
-3 -20 8 -7 14 -8 14 -3 0 6 13 9 30 8 16 -1 30 -8 30 -14 0 -7 -4 -13 -9 -13
-4 0 -6 -12 -3 -27 4 -24 7 -21 18 23 7 29 9 55 3 64 -5 10 -8 11 -9 3z"/>
<path d="M240 320 c11 -7 2 -8 -27 -4 -27 4 -43 3 -43 -4 0 -15 48 -24 69 -13
10 6 21 7 25 4 3 -3 6 -2 6 4 0 6 -7 14 -16 17 -24 9 -31 7 -14 -4z"/>
<path d="M175 268 c11 -36 22 -41 17 -8 -2 16 -9 30 -14 30 -5 0 -6 -10 -3
-22z"/>
<path d="M305 260 c-4 -6 -11 -7 -17 -4 -7 4 -8 2 -4 -4 10 -16 23 -15 30 3 6
17 0 20 -9 5z"/>
<path d="M176 201 c-10 -11 -15 -25 -11 -30 3 -6 2 -11 -4 -11 -5 0 -11 6 -13
12 -3 9 -17 4 -46 -15 -23 -15 -45 -27 -50 -27 -16 0 -57 -51 -46 -58 12 -8
14 -53 2 -46 -4 3 -8 -2 -8 -10 0 -13 14 -16 75 -16 73 0 75 1 65 20 -11 20
-24 24 -70 20 -28 -2 -22 10 7 14 10 2 24 14 30 27 9 16 13 19 13 8 0 -9 6
-19 14 -22 8 -3 17 -19 21 -36 6 -28 10 -31 45 -31 33 0 38 3 34 18 -5 16 -5
16 8 0 11 -13 31 -17 91 -17 42 0 77 3 77 7 0 4 -7 18 -16 30 -9 13 -14 26
-11 29 11 10 26 -7 32 -37 5 -23 12 -30 31 -30 31 0 43 28 20 46 -10 7 -24 10
-32 7 -8 -3 -14 0 -14 6 0 6 3 10 8 10 4 -1 14 -1 22 0 20 2 -8 24 -73 57 -47
24 -47 25 -31 50 9 13 14 27 11 30 -3 3 -8 -3 -11 -14 -7 -20 -45 -42 -74 -42
-20 0 -55 28 -69 53 -9 17 -10 17 -27 -2z m58 -72 c-7 -13 34 -31 64 -27 24 3
27 0 27 -29 0 -17 3 -29 7 -26 5 2 8 -1 8 -6 0 -24 -43 -8 -79 29 -48 49 -78
56 -49 11 13 -21 4 -56 -12 -46 -5 3 -10 17 -10 30 0 13 -4 27 -10 30 -5 3
-10 18 -10 32 0 21 3 23 14 14 20 -17 32 5 15 27 -8 9 -1 6 13 -7 15 -13 25
-28 22 -32z m-104 21 c-8 -5 -11 -10 -7 -10 14 0 -20 -30 -34 -30 -7 0 -21 -7
-31 -17 -23 -21 -24 -12 -1 13 22 24 64 53 78 53 6 1 3 -4 -5 -9z m45 -100 c3
-5 1 -10 -4 -10 -6 0 -11 5 -11 10 0 6 2 10 4 10 3 0 8 -4 11 -10z"/>
<path d="M252 209 c6 -4 16 -5 20 -3 4 3 16 0 25 -5 17 -10 16 -10 -2 -11 -11
-1 -14 -4 -7 -7 14 -5 42 14 42 28 0 5 -20 8 -45 7 -26 -1 -41 -5 -33 -9z"/>
</g>
</svg>
